<mxfile host="app.diagrams.net" modified="2020-09-28T04:42:12.477Z" agent="5.0 (Windows NT 10.0; Win64; x64) AppleWebKit/537.36 (KHTML, like Gecko) Chrome/85.0.4183.121 Safari/537.36" etag="FU5MNonU35dTW_cfkl15" version="13.7.5" type="github">
  <diagram id="j31mRTm_-CNbjtzLo3Qr" name="Page-1">
    <mxGraphModel dx="782" dy="483" grid="1" gridSize="10" guides="1" tooltips="1" connect="1" arrows="1" fold="1" page="1" pageScale="1" pageWidth="850" pageHeight="1100" math="0" shadow="0">
      <root>
        <mxCell id="0" />
        <mxCell id="1" parent="0" />
        <mxCell id="pvcZD3t7a6kfpfQKi11r-1" value="" style="whiteSpace=wrap;html=1;aspect=fixed;" vertex="1" parent="1">
          <mxGeometry x="180" y="500" width="520" height="520" as="geometry" />
        </mxCell>
        <mxCell id="pvcZD3t7a6kfpfQKi11r-4" value="khách hàng&lt;br&gt;" style="shape=umlActor;verticalLabelPosition=bottom;verticalAlign=top;html=1;outlineConnect=0;" vertex="1" parent="1">
          <mxGeometry x="50" y="630" width="30" height="60" as="geometry" />
        </mxCell>
        <mxCell id="pvcZD3t7a6kfpfQKi11r-5" value="Admin&lt;br&gt;" style="shape=umlActor;verticalLabelPosition=bottom;verticalAlign=top;html=1;outlineConnect=0;" vertex="1" parent="1">
          <mxGeometry x="750" y="620" width="30" height="60" as="geometry" />
        </mxCell>
        <mxCell id="pvcZD3t7a6kfpfQKi11r-12" style="edgeStyle=orthogonalEdgeStyle;rounded=0;orthogonalLoop=1;jettySize=auto;html=1;exitX=0;exitY=0.5;exitDx=0;exitDy=0;" edge="1" parent="1" source="pvcZD3t7a6kfpfQKi11r-6" target="pvcZD3t7a6kfpfQKi11r-4">
          <mxGeometry relative="1" as="geometry" />
        </mxCell>
        <mxCell id="pvcZD3t7a6kfpfQKi11r-6" value="Tìm kiếm" style="ellipse;whiteSpace=wrap;html=1;" vertex="1" parent="1">
          <mxGeometry x="230" y="570" width="120" height="30" as="geometry" />
        </mxCell>
        <mxCell id="pvcZD3t7a6kfpfQKi11r-9" style="edgeStyle=orthogonalEdgeStyle;rounded=0;orthogonalLoop=1;jettySize=auto;html=1;exitX=0.5;exitY=0.5;exitDx=0;exitDy=0;exitPerimeter=0;" edge="1" parent="1" source="pvcZD3t7a6kfpfQKi11r-8">
          <mxGeometry relative="1" as="geometry">
            <mxPoint x="70" y="870" as="targetPoint" />
          </mxGeometry>
        </mxCell>
        <mxCell id="pvcZD3t7a6kfpfQKi11r-8" value="Nhân viên&lt;br&gt;" style="shape=umlActor;verticalLabelPosition=bottom;verticalAlign=top;html=1;outlineConnect=0;" vertex="1" parent="1">
          <mxGeometry x="60" y="870" width="30" height="60" as="geometry" />
        </mxCell>
        <mxCell id="pvcZD3t7a6kfpfQKi11r-18" style="edgeStyle=orthogonalEdgeStyle;rounded=0;orthogonalLoop=1;jettySize=auto;html=1;exitX=0;exitY=0.5;exitDx=0;exitDy=0;entryX=1;entryY=0.3333333333333333;entryDx=0;entryDy=0;entryPerimeter=0;" edge="1" parent="1" source="pvcZD3t7a6kfpfQKi11r-13" target="pvcZD3t7a6kfpfQKi11r-4">
          <mxGeometry relative="1" as="geometry">
            <Array as="points">
              <mxPoint x="150" y="625" />
              <mxPoint x="150" y="650" />
            </Array>
          </mxGeometry>
        </mxCell>
        <mxCell id="pvcZD3t7a6kfpfQKi11r-13" value="Điền thông tin" style="ellipse;whiteSpace=wrap;html=1;" vertex="1" parent="1">
          <mxGeometry x="230" y="610" width="120" height="30" as="geometry" />
        </mxCell>
        <mxCell id="pvcZD3t7a6kfpfQKi11r-22" style="edgeStyle=orthogonalEdgeStyle;rounded=0;orthogonalLoop=1;jettySize=auto;html=1;" edge="1" parent="1" source="pvcZD3t7a6kfpfQKi11r-14">
          <mxGeometry relative="1" as="geometry">
            <mxPoint x="80" y="650" as="targetPoint" />
          </mxGeometry>
        </mxCell>
        <mxCell id="pvcZD3t7a6kfpfQKi11r-14" value="đặt vé" style="ellipse;whiteSpace=wrap;html=1;" vertex="1" parent="1">
          <mxGeometry x="230" y="650" width="120" height="30" as="geometry" />
        </mxCell>
        <mxCell id="pvcZD3t7a6kfpfQKi11r-21" style="edgeStyle=orthogonalEdgeStyle;rounded=0;orthogonalLoop=1;jettySize=auto;html=1;" edge="1" parent="1" source="pvcZD3t7a6kfpfQKi11r-15">
          <mxGeometry relative="1" as="geometry">
            <mxPoint x="80" y="650" as="targetPoint" />
            <Array as="points">
              <mxPoint x="150" y="705" />
              <mxPoint x="150" y="650" />
            </Array>
          </mxGeometry>
        </mxCell>
        <mxCell id="pvcZD3t7a6kfpfQKi11r-15" value="hủy vé" style="ellipse;whiteSpace=wrap;html=1;" vertex="1" parent="1">
          <mxGeometry x="232.5" y="690" width="115" height="30" as="geometry" />
        </mxCell>
        <mxCell id="pvcZD3t7a6kfpfQKi11r-23" style="edgeStyle=orthogonalEdgeStyle;rounded=0;orthogonalLoop=1;jettySize=auto;html=1;" edge="1" parent="1" source="pvcZD3t7a6kfpfQKi11r-16">
          <mxGeometry relative="1" as="geometry">
            <mxPoint x="80" y="650" as="targetPoint" />
            <Array as="points">
              <mxPoint x="150" y="745" />
              <mxPoint x="150" y="650" />
            </Array>
          </mxGeometry>
        </mxCell>
        <mxCell id="pvcZD3t7a6kfpfQKi11r-16" value="thanh toán&lt;br&gt;" style="ellipse;whiteSpace=wrap;html=1;" vertex="1" parent="1">
          <mxGeometry x="232.5" y="730" width="110" height="30" as="geometry" />
        </mxCell>
        <mxCell id="pvcZD3t7a6kfpfQKi11r-24" style="edgeStyle=orthogonalEdgeStyle;rounded=0;orthogonalLoop=1;jettySize=auto;html=1;" edge="1" parent="1" source="pvcZD3t7a6kfpfQKi11r-17">
          <mxGeometry relative="1" as="geometry">
            <mxPoint x="80" y="650" as="targetPoint" />
            <Array as="points">
              <mxPoint x="150" y="785" />
              <mxPoint x="150" y="650" />
            </Array>
          </mxGeometry>
        </mxCell>
        <mxCell id="pvcZD3t7a6kfpfQKi11r-17" value="in vé&amp;nbsp;" style="ellipse;whiteSpace=wrap;html=1;" vertex="1" parent="1">
          <mxGeometry x="319.5" y="765" width="113" height="30" as="geometry" />
        </mxCell>
        <mxCell id="pvcZD3t7a6kfpfQKi11r-32" style="edgeStyle=orthogonalEdgeStyle;rounded=0;orthogonalLoop=1;jettySize=auto;html=1;" edge="1" parent="1" source="pvcZD3t7a6kfpfQKi11r-25" target="pvcZD3t7a6kfpfQKi11r-5">
          <mxGeometry relative="1" as="geometry">
            <Array as="points">
              <mxPoint x="720" y="585" />
              <mxPoint x="720" y="650" />
            </Array>
          </mxGeometry>
        </mxCell>
        <mxCell id="pvcZD3t7a6kfpfQKi11r-25" value="thông tin về bus&lt;br&gt;" style="ellipse;whiteSpace=wrap;html=1;" vertex="1" parent="1">
          <mxGeometry x="440" y="570" width="115" height="30" as="geometry" />
        </mxCell>
        <mxCell id="pvcZD3t7a6kfpfQKi11r-53" style="edgeStyle=orthogonalEdgeStyle;rounded=0;orthogonalLoop=1;jettySize=auto;html=1;" edge="1" parent="1" source="pvcZD3t7a6kfpfQKi11r-28">
          <mxGeometry relative="1" as="geometry">
            <mxPoint x="750" y="650" as="targetPoint" />
            <Array as="points">
              <mxPoint x="720" y="805" />
              <mxPoint x="720" y="650" />
            </Array>
          </mxGeometry>
        </mxCell>
        <mxCell id="pvcZD3t7a6kfpfQKi11r-28" value="quản lý nhân viên" style="ellipse;whiteSpace=wrap;html=1;" vertex="1" parent="1">
          <mxGeometry x="450" y="790" width="122.5" height="30" as="geometry" />
        </mxCell>
        <mxCell id="pvcZD3t7a6kfpfQKi11r-49" style="edgeStyle=orthogonalEdgeStyle;rounded=0;orthogonalLoop=1;jettySize=auto;html=1;" edge="1" parent="1" source="pvcZD3t7a6kfpfQKi11r-29">
          <mxGeometry relative="1" as="geometry">
            <mxPoint x="750" y="650" as="targetPoint" />
            <Array as="points">
              <mxPoint x="720" y="625" />
              <mxPoint x="720" y="650" />
            </Array>
          </mxGeometry>
        </mxCell>
        <mxCell id="pvcZD3t7a6kfpfQKi11r-29" value="quản lý khách hàng&amp;nbsp;" style="ellipse;whiteSpace=wrap;html=1;" vertex="1" parent="1">
          <mxGeometry x="432.5" y="610" width="150" height="30" as="geometry" />
        </mxCell>
        <mxCell id="pvcZD3t7a6kfpfQKi11r-41" style="edgeStyle=orthogonalEdgeStyle;rounded=0;orthogonalLoop=1;jettySize=auto;html=1;" edge="1" parent="1" source="pvcZD3t7a6kfpfQKi11r-30" target="pvcZD3t7a6kfpfQKi11r-8">
          <mxGeometry relative="1" as="geometry" />
        </mxCell>
        <mxCell id="pvcZD3t7a6kfpfQKi11r-30" value="kiểm tra vé" style="ellipse;whiteSpace=wrap;html=1;" vertex="1" parent="1">
          <mxGeometry x="220" y="840" width="120" height="30" as="geometry" />
        </mxCell>
        <mxCell id="pvcZD3t7a6kfpfQKi11r-42" style="edgeStyle=orthogonalEdgeStyle;rounded=0;orthogonalLoop=1;jettySize=auto;html=1;" edge="1" parent="1" source="pvcZD3t7a6kfpfQKi11r-31">
          <mxGeometry relative="1" as="geometry">
            <mxPoint x="90" y="900" as="targetPoint" />
            <Array as="points">
              <mxPoint x="160" y="920" />
              <mxPoint x="160" y="900" />
            </Array>
          </mxGeometry>
        </mxCell>
        <mxCell id="pvcZD3t7a6kfpfQKi11r-31" value="đưa đón khách hàng thông qua thông tin vé" style="ellipse;whiteSpace=wrap;html=1;" vertex="1" parent="1">
          <mxGeometry x="316" y="880" width="120" height="80" as="geometry" />
        </mxCell>
        <mxCell id="pvcZD3t7a6kfpfQKi11r-51" style="edgeStyle=orthogonalEdgeStyle;rounded=0;orthogonalLoop=1;jettySize=auto;html=1;" edge="1" parent="1" source="pvcZD3t7a6kfpfQKi11r-27">
          <mxGeometry relative="1" as="geometry">
            <mxPoint x="750" y="650" as="targetPoint" />
            <Array as="points">
              <mxPoint x="720" y="745" />
              <mxPoint x="720" y="650" />
            </Array>
          </mxGeometry>
        </mxCell>
        <mxCell id="pvcZD3t7a6kfpfQKi11r-27" value="Tính toán các khoản phí , thu tiền&lt;br&gt;" style="ellipse;whiteSpace=wrap;html=1;" vertex="1" parent="1">
          <mxGeometry x="452.5" y="725" width="120" height="40" as="geometry" />
        </mxCell>
        <mxCell id="pvcZD3t7a6kfpfQKi11r-50" style="edgeStyle=orthogonalEdgeStyle;rounded=0;orthogonalLoop=1;jettySize=auto;html=1;" edge="1" parent="1" source="pvcZD3t7a6kfpfQKi11r-26">
          <mxGeometry relative="1" as="geometry">
            <mxPoint x="750" y="650" as="targetPoint" />
            <Array as="points">
              <mxPoint x="720" y="673" />
              <mxPoint x="720" y="650" />
            </Array>
          </mxGeometry>
        </mxCell>
        <mxCell id="pvcZD3t7a6kfpfQKi11r-26" value="kiểm soát bảng giá&lt;br&gt;" style="ellipse;whiteSpace=wrap;html=1;" vertex="1" parent="1">
          <mxGeometry x="450" y="655" width="110" height="35" as="geometry" />
        </mxCell>
        <mxCell id="pvcZD3t7a6kfpfQKi11r-60" value="" style="endArrow=none;dashed=1;html=1;dashPattern=1 3;strokeWidth=2;exitX=1;exitY=0.5;exitDx=0;exitDy=0;" edge="1" parent="1" source="pvcZD3t7a6kfpfQKi11r-13" target="pvcZD3t7a6kfpfQKi11r-29">
          <mxGeometry width="50" height="50" relative="1" as="geometry">
            <mxPoint x="380" y="730" as="sourcePoint" />
            <mxPoint x="430" y="680" as="targetPoint" />
          </mxGeometry>
        </mxCell>
        <mxCell id="pvcZD3t7a6kfpfQKi11r-62" value="" style="endArrow=none;dashed=1;html=1;exitX=1;exitY=0.5;exitDx=0;exitDy=0;entryX=0;entryY=0.5;entryDx=0;entryDy=0;" edge="1" parent="1" source="pvcZD3t7a6kfpfQKi11r-16" target="pvcZD3t7a6kfpfQKi11r-27">
          <mxGeometry width="50" height="50" relative="1" as="geometry">
            <mxPoint x="380" y="730" as="sourcePoint" />
            <mxPoint x="430" y="680" as="targetPoint" />
          </mxGeometry>
        </mxCell>
        <mxCell id="pvcZD3t7a6kfpfQKi11r-66" value="" style="endArrow=none;dashed=1;html=1;entryX=0;entryY=0.5;entryDx=0;entryDy=0;" edge="1" parent="1" source="pvcZD3t7a6kfpfQKi11r-6" target="pvcZD3t7a6kfpfQKi11r-25">
          <mxGeometry width="50" height="50" relative="1" as="geometry">
            <mxPoint x="380" y="730" as="sourcePoint" />
            <mxPoint x="430" y="680" as="targetPoint" />
          </mxGeometry>
        </mxCell>
        <mxCell id="pvcZD3t7a6kfpfQKi11r-67" value="" style="endArrow=none;dashed=1;html=1;dashPattern=1 3;strokeWidth=2;exitX=0.5;exitY=0;exitDx=0;exitDy=0;entryX=0.5;entryY=1;entryDx=0;entryDy=0;" edge="1" parent="1" source="pvcZD3t7a6kfpfQKi11r-31" target="pvcZD3t7a6kfpfQKi11r-17">
          <mxGeometry width="50" height="50" relative="1" as="geometry">
            <mxPoint x="380" y="830" as="sourcePoint" />
            <mxPoint x="430" y="780" as="targetPoint" />
          </mxGeometry>
        </mxCell>
      </root>
    </mxGraphModel>
  </diagram>
</mxfile>
